# xmcd
# Track frame offsets:
# 150
# 13283
# 27415
# 43058
# 52760
# 65715
# 80695
# 95300
# 109113
# 120523
# 134650
# 148233
# 162800
# 177928
# 191683
# 205938
# 217645
# 232775
#
# Disc length: 3293 seconds
# Revision: 0
# Processed by: cddbd v1.4PL0 Copyright (c) Steve Scherf et al.
# Submitted via: VisiTrax 2.9.3.171 - For more info visit www.synapsa.com
#
DISCID=fb0cdb12
DTITLE=Billy Holiday - Billie Holiday - gold Collection
DYEAR=1900
DGENRE=
TTITLE0=Summertime
TTITLE1=Carelessly
TTITLE2=I can't give you anything but love
TTITLE3=I'm gonna lock my heart
TTITLE4=A fine romance
TTITLE5=Those foolish things
TTITLE6=Who loves you
TTITLE7=Twenty four hours a day
TTITLE8=How could you
TTITLE9=Mean to me
TTITLE10=The mood that I am in
TTITLE11=If you were mine
TTITLE12=It's like reaching for the moon
TTITLE13=Let's call a heart to heart
TTITLE14=God bless the child
TTITLE15=Me myself and I
TTITLE16=Tenderly
TTITLE17=This year's kisses
EXTD=Ελευθεροτυπια
EXTT0=
EXTT1=
EXTT2=
EXTT3=
EXTT4=
EXTT5=
EXTT6=
EXTT7=
EXTT8=
EXTT9=
EXTT10=
EXTT11=
EXTT12=
EXTT13=
EXTT14=
EXTT15=
EXTT16=
EXTT17=
PLAYORDER=
